<svg xmlns="http://www.w3.org/2000/svg" height="40px" viewBox="0 -960 960 960" width="40px" fill="#fff"><path d="M367.69-859.74V-910h224.62v50.26H367.69Zm87.18 445.69h50.26v-219.74h-50.26v219.74ZM348-127.31q-61.85-26.9-108.15-73.08-46.31-46.17-73.08-108.15-26.77-61.97-26.77-132 0-70.02 26.77-131.87 26.77-61.85 73.08-108.15 46.3-46.31 108.15-73.08 61.85-26.77 132-26.77 62.64 0 119.04 21.33 56.4 21.34 101.93 60.16l47.54-47.28 35.8 35.79-47.54 47.54q37.18 42.56 60.2 98.22Q820-509 820-440.41q0 69.9-26.77 131.87-26.77 61.98-73.08 108.15-46.3 46.18-108.15 73.08-61.85 26.9-132 26.9t-132-26.9Z"/></svg>